<svg xmlns="http://www.w3.org/2000/svg" version="1.1" xmlns:xlink="http://www.w3.org/1999/xlink" xmlns:svgjs="http://svgjs.dev/svgjs" width="1000" height="1000"><g clip-path="url(#SvgjsClipPath1066)"><rect width="1000" height="1000" fill="#ffffff"></rect><g transform="matrix(9.89010989010989,0,0,9.89010989010989,50,54.94505494505495)"><svg xmlns="http://www.w3.org/2000/svg" version="1.1" xmlns:xlink="http://www.w3.org/1999/xlink" xmlns:svgjs="http://svgjs.dev/svgjs" width="91" height="90"><svg width="91" height="90" viewBox="0 0 91 90" fill="none" xmlns="http://www.w3.org/2000/svg">
<path d="M20.904 89.0228C9.37853 89.0228 0 79.6442 0 68.1188C0 56.5934 9.37853 47.2148 20.904 47.2148C32.4294 47.2148 41.8079 56.5934 41.8079 68.1188C41.8079 79.6442 32.4294 89.0228 20.904 89.0228ZM20.904 51.7403C11.8701 51.7403 4.51977 59.0906 4.51977 68.1245C4.51977 77.1584 11.8701 84.5086 20.904 84.5086C29.9379 84.5086 37.2881 77.1584 37.2881 68.1245C37.2881 59.0906 29.9379 51.7403 20.904 51.7403Z" fill="black"></path>
<path d="M90.4799 41.1073H45.5703L68.0223 0.0507812L90.4743 41.1073H90.4799ZM53.1974 36.5875H82.8585L68.0279 9.46886L53.1974 36.5875Z" fill="black"></path>
<path d="M86.4576 63.9548H49.6327C48.774 63.9548 47.983 63.4633 47.6045 62.6949C47.226 61.9209 47.3164 61 47.8418 60.3164C54.8813 51.1751 62.2373 46.7909 69.6949 47.2994C81.113 48.0734 88.1243 60.0621 88.4181 60.5706C88.8192 61.2712 88.8192 62.1299 88.4181 62.8305C88.0169 63.5311 87.2712 63.9604 86.4633 63.9604L86.4576 63.9548ZM54.4915 59.435H82.0508C79.4633 56.339 74.9887 52.1808 69.3729 51.8079C64.5141 51.4915 59.5141 54.0508 54.4915 59.435Z" fill="black"></path>
<path d="M86.3335 76.7289C86.0906 76.7289 85.8364 76.6893 85.5934 76.6046L49.0171 63.9153C47.8364 63.5085 47.2149 62.2204 47.6217 61.0396C48.0341 59.8588 49.3166 59.2373 50.4974 59.6441L87.0736 72.3334C88.2544 72.7402 88.8759 74.0283 88.4691 75.2091C88.1471 76.1413 87.2714 76.7289 86.3335 76.7289Z" fill="black"></path>
<path d="M67.525 89.0228C67.1408 89.0228 66.7566 89.0115 66.3668 88.9833C54.9487 88.2093 47.9374 76.2206 47.6436 75.7121C47.2425 75.0115 47.2425 74.1528 47.6436 73.4522C48.0448 72.7516 48.7905 72.3223 49.5984 72.3223H86.4233C87.282 72.3223 88.073 72.8138 88.4515 73.5822C88.8301 74.3562 88.7397 75.2771 88.2142 75.9607C81.5363 84.6274 74.5815 89.0172 67.5137 89.0172L67.525 89.0228ZM54.0165 76.8477C56.6041 79.9437 61.0786 84.1019 66.6945 84.4748C71.5645 84.7912 76.5532 82.2319 81.5758 76.8477H54.0165Z" fill="black"></path>
<path d="M0 41.8418V0H41.8418L41.8023 2.59322L41.7119 4.51977L38.6836 6.13559L9.16949 20.904L41.7853 37.226L41.8079 41.1695L39.4802 41.1808L0.00564877 41.8418H0ZM4.51977 23.6328V37.2486L30.8475 36.8079L4.51977 23.6328ZM4.51977 4.51977V18.1751L31.8023 4.51977H4.51977Z" fill="black"></path>
</svg></svg></g></g><defs><clipPath id="SvgjsClipPath1066"><rect width="1000" height="1000" x="0" y="0" rx="0" ry="0"></rect></clipPath></defs></svg>