<?xml version="1.0" encoding="utf-8"?>
<!-- Generator: Adobe Illustrator 27.2.0, SVG Export Plug-In . SVG Version: 6.00 Build 0)  -->
<svg version="1.1" id="Layer_1" xmlns="http://www.w3.org/2000/svg" xmlns:xlink="http://www.w3.org/1999/xlink" x="0px" y="0px"
	 viewBox="0 0 35 35" style="enable-background:new 0 0 35 35;" xml:space="preserve">
<style type="text/css">
	.st0{fill:#020202;}
</style>
<path class="st0" d="M10.4,0.5h14.3c5.4,0,9.9,4.4,9.9,9.9v14.3c0,2.6-1,5.1-2.9,7c-1.9,1.9-4.4,2.9-7,2.9H10.4
	c-5.4,0-9.9-4.4-9.9-9.9V10.4c0-2.6,1-5.1,2.9-7C5.2,1.5,7.7,0.5,10.4,0.5z M10,3.9c-1.6,0-3.2,0.6-4.3,1.8S3.9,8.4,3.9,10v15
	c0,3.4,2.7,6.1,6.1,6.1h15c1.6,0,3.2-0.6,4.3-1.8s1.8-2.7,1.8-4.3V10c0-3.4-2.7-6.1-6.1-6.1H10z M26.4,6.4c0.6,0,1.1,0.2,1.5,0.6
	s0.6,0.9,0.6,1.5s-0.2,1.1-0.6,1.5s-0.9,0.6-1.5,0.6s-1.1-0.2-1.5-0.6c-0.4-0.4-0.6-0.9-0.6-1.5s0.2-1.1,0.6-1.5
	C25.3,6.7,25.9,6.4,26.4,6.4z M17.5,9c2.3,0,4.4,0.9,6,2.5s2.5,3.8,2.5,6s-0.9,4.4-2.5,6s-3.8,2.5-6,2.5s-4.4-0.9-6-2.5
	S9,19.7,9,17.5s0.9-4.4,2.5-6S15.2,9,17.5,9z M17.5,12.4c-1.4,0-2.7,0.5-3.6,1.5s-1.5,2.3-1.5,3.6s0.5,2.7,1.5,3.6
	c1,1,2.3,1.5,3.6,1.5s2.7-0.5,3.6-1.5c1-1,1.5-2.3,1.5-3.6s-0.5-2.7-1.5-3.6C20.2,12.9,18.9,12.4,17.5,12.4z"/>
</svg>
