<svg width="163" height="199" viewBox="0 0 163 199" fill="none" xmlns="http://www.w3.org/2000/svg">
<path d="M37 157.57C16.6 157.57 0 140.97 0 120.57C0 100.17 16.6 83.5698 37 83.5698C57.4 83.5698 74 100.17 74 120.57C74 140.97 57.4 157.57 37 157.57ZM37 91.5798C21.01 91.5798 8 104.59 8 120.58C8 136.57 21.01 149.58 37 149.58C52.99 149.58 66 136.57 66 120.58C66 104.59 52.99 91.5798 37 91.5798Z" fill="black"/>
<path d="M160.15 72.7598H80.6602L120.4 0.0898438L160.14 72.7598H160.15ZM94.1602 64.7598H146.66L120.41 16.7598L94.1602 64.7598Z" fill="black"/>
<path d="M153.029 113.2H87.8493C86.3293 113.2 84.9293 112.33 84.2593 110.97C83.5893 109.6 83.7493 107.97 84.6793 106.76C97.1393 90.5798 110.159 82.8198 123.359 83.7198C143.569 85.0898 155.979 106.31 156.499 107.21C157.209 108.45 157.209 109.97 156.499 111.21C155.789 112.45 154.469 113.21 153.039 113.21L153.029 113.2ZM96.4493 105.2H145.229C140.649 99.7198 132.729 92.3598 122.789 91.6998C114.189 91.1398 105.339 95.6698 96.4493 105.2Z" fill="black"/>
<path d="M152.81 135.81C152.38 135.81 151.93 135.74 151.5 135.59L86.7599 113.13C84.6699 112.41 83.5699 110.13 84.2899 108.04C85.0199 105.95 87.2899 104.85 89.3799 105.57L154.12 128.03C156.21 128.75 157.31 131.03 156.59 133.12C156.02 134.77 154.47 135.81 152.81 135.81Z" fill="black"/>
<path d="M119.519 157.57C118.839 157.57 118.159 157.55 117.469 157.5C97.2594 156.13 84.8494 134.91 84.3294 134.01C83.6194 132.77 83.6194 131.25 84.3294 130.01C85.0394 128.77 86.3594 128.01 87.7894 128.01H152.969C154.489 128.01 155.889 128.88 156.559 130.24C157.229 131.61 157.069 133.24 156.139 134.45C144.319 149.79 132.009 157.56 119.499 157.56L119.519 157.57ZM95.6094 136.02C100.189 141.5 108.109 148.86 118.049 149.52C126.669 150.08 135.499 145.55 144.389 136.02H95.6094Z" fill="black"/>
<path d="M17.2598 197.15L14.3398 192.98C14.0398 192.54 13.7298 192.32 13.4198 192.32C13.0398 192.32 12.8498 192.7 12.8498 193.45V196.28C12.8498 196.64 12.7198 196.93 12.4498 197.14C12.1798 197.35 11.8698 197.49 11.4998 197.53C10.4498 197.61 9.2698 197.65 7.9498 197.65C6.6298 197.65 5.3798 197.61 4.1998 197.53C3.6998 197.49 3.29981 197.29 2.99981 196.92C2.69981 196.55 2.53981 196.14 2.49981 195.68C2.36981 193.93 2.2998 191.22 2.2998 187.54C2.2998 183.86 2.33981 181.36 2.40981 180.05C2.47981 178.74 2.6298 177.87 2.8598 177.44C3.0798 177.01 3.5498 176.8 4.2398 176.8H10.9198C11.4698 176.8 11.9198 177.06 12.2898 177.57C12.6598 178.09 12.8398 178.72 12.8398 179.48L12.8598 182.82C12.8598 183.24 12.9498 183.44 13.1298 183.44C13.2498 183.44 13.4798 183.27 13.8298 182.93L18.7098 177.48C19.1098 177.02 19.5898 176.79 20.1398 176.78C20.6998 176.78 21.2898 176.77 21.9198 176.77L23.8398 176.8C24.0998 176.8 24.2898 176.95 24.3898 177.25C24.4898 177.55 24.4398 177.82 24.2398 178.05C22.3298 180.33 20.4198 182.45 18.5098 184.39C18.3398 184.57 18.2598 184.75 18.2598 184.94C18.2598 185.13 18.3498 185.33 18.5298 185.55L19.8798 187.16C20.5598 187.97 21.1198 188.64 21.5598 189.16C21.9998 189.68 22.5198 190.3 23.1198 191.04C24.3198 192.51 25.2298 193.7 25.8598 194.61C26.1898 195.09 26.3598 195.57 26.3598 196.07C26.3598 196.25 26.3298 196.44 26.2798 196.64C26.0998 197.32 25.6998 197.65 25.0798 197.65H18.3798C17.8698 197.65 17.4798 197.48 17.2298 197.14L17.2598 197.15Z" fill="black"/>
<path d="M38.8699 183.99L38.8399 189.95C38.8399 190.82 38.9499 191.47 39.1799 191.9C39.3999 192.33 39.8699 192.54 40.5899 192.54H46.8899C47.6499 192.56 48.0399 193.25 48.0399 194.62C48.0399 195.67 47.9299 196.44 47.7199 196.91C47.5099 197.38 47.0599 197.63 46.3999 197.65C44.0599 197.73 41.7399 197.77 39.4499 197.77C37.1599 197.77 34.2299 197.75 30.6799 197.71C30.0799 197.71 29.5999 197.54 29.2199 197.19C28.8499 196.84 28.6299 196.36 28.5799 195.75C28.4499 194.02 28.3799 191.3 28.3799 187.58C28.3799 183.86 28.4199 181.35 28.4899 180.04C28.5599 178.74 28.7199 177.88 28.9499 177.45C29.1799 177.02 29.6399 176.81 30.3199 176.81H36.9999C37.6999 176.81 38.1599 177.03 38.3799 177.47C38.5999 177.91 38.7399 178.61 38.7899 179.58C38.8399 180.55 38.8699 182.02 38.8699 183.99Z" fill="black"/>
<path d="M59.5293 179.94L59.4793 182.65V188.4C59.4793 189.23 59.6993 189.88 60.1293 190.34C60.5593 190.8 61.0693 191.02 61.6493 191.02C62.2293 191.02 62.7293 190.79 63.1593 190.34C63.5793 189.88 63.7993 189.24 63.7993 188.4V179.52C63.7993 178.59 63.8993 177.9 64.1093 177.47C64.3193 177.04 64.7693 176.81 65.4693 176.81H67.7593C68.2893 176.81 68.6593 177 68.8593 177.38C69.2393 178.05 69.4293 180.67 69.4293 185.21C69.4293 186.7 69.4093 187.84 69.3793 188.63C69.3293 190.24 69.0193 191.67 68.4493 192.93C67.8793 194.19 67.1393 195.2 66.2393 195.95C64.4293 197.48 62.3793 198.24 60.0793 198.24C57.0593 198.24 54.5593 197.4 52.5793 195.71C51.5793 194.86 50.7993 193.72 50.2293 192.3C49.6593 190.88 49.3593 189.23 49.3493 187.34C49.3293 186.41 49.3193 185.03 49.3193 183.22C49.3193 181.41 49.3393 180.09 49.3793 179.29C49.4193 178.49 49.5493 177.87 49.7793 177.44C49.9993 177.01 50.4593 176.8 51.1393 176.8H57.7893C58.4593 176.8 58.8993 177.01 59.1093 177.42C59.3893 177.96 59.5293 178.79 59.5293 179.92V179.94Z" fill="black"/>
<path d="M73.8093 176.84C75.8693 176.76 78.4393 176.72 81.5393 176.72C84.6393 176.72 86.7693 176.76 87.9593 176.82C89.1493 176.89 90.1993 177.44 91.1093 178.47C92.0193 179.5 92.4793 180.69 92.4793 182.04C92.4793 183.69 91.8793 184.9 90.6893 185.67C90.5693 185.75 90.5193 185.84 90.5193 185.95C90.5193 186.06 90.5793 186.13 90.6893 186.17C91.5493 186.45 92.2793 187.04 92.8693 187.96C93.4593 188.88 93.7493 189.96 93.7493 191.21C93.7493 192.78 93.2393 194.2 92.2293 195.47C91.2193 196.74 89.6593 197.43 87.5693 197.54C85.4793 197.65 83.9593 197.7 83.0293 197.7C82.0993 197.7 78.9893 197.67 73.7093 197.61C73.2293 197.61 72.8393 197.43 72.5393 197.06C72.2393 196.69 72.0693 196.27 72.0193 195.79C71.8893 194.04 71.8193 191.5 71.8193 188.15C71.8193 184.8 71.8793 181.95 71.9893 179.59C72.0393 178.62 72.1793 177.92 72.4093 177.49C72.6393 177.06 73.1093 176.84 73.8093 176.82V176.84ZM81.9593 180.83L81.9893 183.27C81.9893 183.65 82.1793 183.84 82.5593 183.84C84.2393 183.84 85.0793 183.27 85.0793 182.14C85.0793 180.83 84.3293 180.18 82.8393 180.18H82.5693C82.1693 180.18 81.9693 180.4 81.9693 180.84L81.9593 180.83ZM81.9893 189.02L81.9593 192.89C81.9593 193.07 82.0093 193.22 82.1093 193.35C82.2093 193.48 82.3393 193.54 82.5093 193.54C83.5193 193.54 84.3593 193.3 85.0093 192.83C85.6593 192.36 85.9893 191.6 85.9893 190.58C85.9893 189.56 85.6493 188.85 84.9693 188.45C84.4193 188.13 83.8193 187.97 83.1793 187.97C83.0093 187.97 82.8493 187.97 82.6793 188C82.2193 188.04 81.9793 188.38 81.9793 189.01L81.9893 189.02Z" fill="black"/>
<path d="M98.0798 176.84C100.14 176.76 102.71 176.72 105.81 176.72C108.91 176.72 111.04 176.76 112.23 176.82C113.42 176.89 114.47 177.44 115.38 178.47C116.29 179.5 116.75 180.69 116.75 182.04C116.75 183.69 116.15 184.9 114.96 185.67C114.84 185.75 114.79 185.84 114.79 185.95C114.79 186.06 114.85 186.13 114.96 186.17C115.82 186.45 116.55 187.04 117.14 187.96C117.73 188.88 118.02 189.96 118.02 191.21C118.02 192.78 117.51 194.2 116.5 195.47C115.49 196.74 113.93 197.43 111.84 197.54C109.75 197.65 108.23 197.7 107.3 197.7C106.37 197.7 103.26 197.67 97.9798 197.61C97.4998 197.61 97.1098 197.43 96.8098 197.06C96.5098 196.69 96.3398 196.27 96.2898 195.79C96.1598 194.04 96.0898 191.5 96.0898 188.15C96.0898 184.8 96.1498 181.95 96.2598 179.59C96.3098 178.62 96.4498 177.92 96.6798 177.49C96.9098 177.06 97.3798 176.84 98.0798 176.82V176.84ZM106.23 180.83L106.26 183.27C106.26 183.65 106.45 183.84 106.83 183.84C108.51 183.84 109.35 183.27 109.35 182.14C109.35 180.83 108.6 180.18 107.11 180.18H106.84C106.44 180.18 106.24 180.4 106.24 180.84L106.23 180.83ZM106.26 189.02L106.23 192.89C106.23 193.07 106.28 193.22 106.38 193.35C106.48 193.48 106.61 193.54 106.78 193.54C107.79 193.54 108.63 193.3 109.28 192.83C109.93 192.36 110.26 191.6 110.26 190.58C110.26 189.56 109.92 188.85 109.24 188.45C108.69 188.13 108.09 187.97 107.45 187.97C107.28 187.97 107.12 187.97 106.95 188C106.49 188.04 106.25 188.38 106.25 189.01L106.26 189.02Z" fill="black"/>
<path d="M121.119 197.11C120.799 196.74 120.589 196.14 120.499 195.29C120.409 194.45 120.359 191.91 120.359 187.7C120.359 183.49 120.419 180.73 120.529 179.44C120.659 177.77 121.249 176.92 122.299 176.88C123.499 176.84 128.449 176.82 137.179 176.82C138.159 176.82 138.649 177.56 138.649 179.05C138.649 180.22 138.219 180.81 137.349 180.81H131.869C131.519 180.81 131.239 180.95 131.039 181.23C130.829 181.51 130.729 181.87 130.729 182.3V184.44C130.729 185.04 130.949 185.33 131.399 185.33H135.939C136.209 185.33 136.409 185.36 136.549 185.42C136.689 185.48 136.819 185.65 136.939 185.94C137.059 186.23 137.109 186.7 137.109 187.35C137.109 188 137.009 188.44 136.819 188.66C136.629 188.88 136.319 188.99 135.889 188.99H131.829C131.409 188.99 131.129 189.11 130.969 189.36C130.809 189.61 130.729 189.99 130.729 190.51V191.97C130.729 192.82 131.069 193.25 131.749 193.25H137.959C138.259 193.25 138.519 193.35 138.759 193.56C138.989 193.77 139.109 194.23 139.109 194.93C139.109 195.63 138.969 196.26 138.689 196.82C138.409 197.38 138.069 197.65 137.689 197.65H122.309C121.839 197.65 121.449 197.47 121.129 197.1L121.119 197.11Z" fill="black"/>
<path d="M158.379 176.81H161.049C161.609 176.81 162.009 176.92 162.229 177.14C162.449 177.36 162.569 177.81 162.589 178.48C162.689 181.5 162.739 184.74 162.739 188.22C162.739 191.7 162.679 194.24 162.569 195.84C162.539 196.3 162.389 196.71 162.129 197.09C161.869 197.47 161.539 197.66 161.119 197.66H156.959C156.379 197.66 155.739 197.41 155.039 196.92C151.189 194.2 148.759 192.54 147.759 191.95C147.559 191.85 147.399 191.89 147.269 192.05C147.149 192.22 147.079 192.53 147.079 192.99V196.3C147.079 196.68 146.959 196.98 146.729 197.19C146.379 197.53 145.479 197.7 144.039 197.7C143.639 197.7 143.249 197.69 142.869 197.66C142.489 197.63 142.179 197.43 141.939 197.05C141.699 196.67 141.569 196.27 141.549 195.83C141.499 193.45 141.479 190.45 141.479 186.85C141.479 183.25 141.479 180.9 141.499 179.81C141.519 178.72 141.619 177.95 141.819 177.5C142.019 177.05 142.399 176.83 142.969 176.83H145.709C146.269 176.83 146.859 177.02 147.449 177.4C152.599 180.6 155.609 182.45 156.469 182.97C156.749 183.13 156.979 183.15 157.139 183.03C157.299 182.91 157.389 182.69 157.389 182.37V178.2C157.389 177.8 157.479 177.48 157.649 177.22C157.819 176.96 158.059 176.83 158.359 176.83L158.379 176.81Z" fill="black"/>
<path d="M0 74.06V0H74.06L73.99 4.59L73.83 8L68.47 10.86L16.23 37L73.96 65.89L74 72.87L69.88 72.89L0.00999832 74.06H0ZM8 41.83V65.93L54.6 65.15L8 41.83ZM8 8V32.17L56.29 8H8Z" fill="black"/>
</svg>
