<svg width="386" height="293" viewBox="0 0 386 293" fill="none" xmlns="http://www.w3.org/2000/svg">
<path d="M232.29 153.38C211.89 153.38 195.29 136.78 195.29 116.38C195.29 95.9799 211.89 79.3799 232.29 79.3799C252.69 79.3799 269.29 95.9799 269.29 116.38C269.29 136.78 252.69 153.38 232.29 153.38ZM232.29 87.3899C216.3 87.3899 203.29 100.4 203.29 116.39C203.29 132.38 216.3 145.39 232.29 145.39C248.28 145.39 261.29 132.38 261.29 116.39C261.29 100.4 248.28 87.3899 232.29 87.3899Z" fill="black"/>
<path d="M195.19 153.33H115.82L155.5 79.4102L195.18 153.33H195.19ZM129.2 145.33H181.82L155.51 96.3302L129.2 145.33Z" fill="black"/>
<path d="M349.97 108.97H284.79C283.27 108.97 281.87 108.1 281.2 106.74C280.53 105.37 280.69 103.74 281.62 102.53C294.08 86.3501 307.08 78.5901 320.3 79.4901C340.51 80.8601 352.92 102.07 353.44 102.98C354.15 104.22 354.15 105.74 353.44 106.98C352.73 108.22 351.41 108.98 349.98 108.98L349.97 108.97ZM293.39 100.97H342.17C337.59 95.4901 329.67 88.1301 319.73 87.4701C311.12 86.8901 302.28 91.4401 293.39 100.97Z" fill="black"/>
<path d="M349.75 131.58C349.32 131.58 348.87 131.51 348.44 131.36L283.7 108.9C281.61 108.18 280.51 105.9 281.23 103.81C281.95 101.72 284.23 100.62 286.32 101.34L351.06 123.8C353.15 124.52 354.25 126.8 353.53 128.89C352.96 130.54 351.41 131.58 349.75 131.58Z" fill="black"/>
<path d="M316.46 153.35C315.78 153.35 315.1 153.33 314.41 153.28C294.2 151.91 281.79 130.69 281.27 129.79C280.56 128.55 280.56 127.03 281.27 125.79C281.98 124.55 283.3 123.79 284.73 123.79H349.91C351.43 123.79 352.83 124.66 353.5 126.02C354.17 127.39 354.01 129.02 353.08 130.23C341.26 145.57 328.95 153.34 316.44 153.34L316.46 153.35ZM292.55 131.8C297.13 137.28 305.05 144.64 314.99 145.3C323.59 145.85 332.44 141.33 341.33 131.8H292.55Z" fill="black"/>
<path d="M70.25 215.85L64.69 207.9C64.12 207.07 63.53 206.65 62.93 206.65C62.2 206.65 61.84 207.37 61.84 208.81V214.2C61.84 214.88 61.59 215.43 61.08 215.85C60.57 216.27 59.97 216.51 59.28 216.59C57.28 216.74 55.03 216.82 52.51 216.82C49.99 216.82 47.61 216.74 45.36 216.59C44.41 216.51 43.65 216.13 43.08 215.43C42.51 214.73 42.19 213.95 42.13 213.07C41.88 209.74 41.75 204.57 41.75 197.55C41.75 190.53 41.82 185.77 41.96 183.28C42.1 180.79 42.39 179.13 42.81 178.31C43.24 177.5 44.12 177.09 45.45 177.09H58.18C59.22 177.09 60.1 177.58 60.79 178.57C61.49 179.55 61.83 180.77 61.83 182.2L61.88 188.56C61.88 189.35 62.05 189.75 62.4 189.75C62.62 189.75 63.06 189.43 63.73 188.79L73.04 178.4C73.8 177.53 74.71 177.09 75.77 177.07C76.83 177.05 77.96 177.04 79.17 177.04L82.83 177.1C83.34 177.1 83.68 177.38 83.87 177.95C84.06 178.52 83.96 179.03 83.58 179.48C79.94 183.83 76.3 187.86 72.66 191.57C72.34 191.91 72.18 192.26 72.18 192.62C72.18 192.98 72.35 193.37 72.7 193.78L75.26 196.84C76.56 198.39 77.63 199.66 78.47 200.64C79.31 201.62 80.3 202.82 81.44 204.22C83.72 207.02 85.46 209.29 86.66 211.03C87.29 211.94 87.61 212.87 87.61 213.81C87.61 214.15 87.56 214.51 87.47 214.89C87.12 216.18 86.36 216.82 85.19 216.82H72.42C71.44 216.82 70.71 216.5 70.24 215.86L70.25 215.85Z" fill="black"/>
<path d="M111.43 190.77L111.38 202.12C111.38 203.79 111.59 205.02 112.02 205.84C112.45 206.65 113.34 207.06 114.7 207.06H126.72C128.18 207.1 128.9 208.42 128.9 211.03C128.9 213.04 128.69 214.49 128.28 215.4C127.87 216.31 127.03 216.78 125.76 216.82C121.3 216.97 116.88 217.05 112.51 217.05C108.14 217.05 102.57 217.01 95.7899 216.94C94.6499 216.94 93.7199 216.61 93.0099 215.95C92.2999 215.29 91.8899 214.37 91.7999 213.2C91.5499 209.91 91.4199 204.72 91.4199 197.62C91.4199 190.52 91.4899 185.74 91.6299 183.26C91.7699 180.78 92.0599 179.14 92.5099 178.32C92.9499 177.51 93.8199 177.1 95.1199 177.1H107.85C109.18 177.1 110.06 177.52 110.49 178.35C110.92 179.18 111.18 180.53 111.27 182.38C111.36 184.23 111.41 187.03 111.41 190.78L111.43 190.77Z" fill="black"/>
<path d="M150.8 183.05L150.71 188.21V199.16C150.71 200.75 151.12 201.98 151.95 202.85C152.77 203.72 153.74 204.16 154.85 204.16C155.96 204.16 156.92 203.73 157.72 202.85C158.53 201.98 158.93 200.75 158.93 199.16V182.25C158.93 180.47 159.13 179.17 159.52 178.33C159.92 177.5 160.78 177.08 162.11 177.08H166.48C167.49 177.08 168.19 177.44 168.57 178.16C169.3 179.45 169.66 184.42 169.66 193.09C169.66 195.93 169.63 198.1 169.57 199.62C169.47 202.68 168.88 205.42 167.79 207.82C166.7 210.22 165.3 212.14 163.59 213.58C160.14 216.49 156.23 217.95 151.86 217.95C146.1 217.95 141.33 216.34 137.57 213.13C135.67 211.5 134.17 209.34 133.08 206.63C131.99 203.92 131.43 200.77 131.39 197.18C131.36 195.4 131.34 192.78 131.34 189.32C131.34 185.86 131.38 183.36 131.46 181.83C131.54 180.3 131.79 179.12 132.22 178.31C132.65 177.5 133.51 177.09 134.81 177.09H147.49C148.76 177.09 149.6 177.49 150.01 178.28C150.55 179.3 150.82 180.89 150.82 183.05H150.8Z" fill="black"/>
<path d="M178.01 177.15C181.93 177 186.84 176.92 192.73 176.92C198.62 176.92 202.69 176.99 204.96 177.12C207.22 177.25 209.23 178.3 210.97 180.27C212.71 182.24 213.58 184.51 213.58 187.08C213.58 190.22 212.44 192.53 210.16 194C209.94 194.15 209.83 194.33 209.83 194.54C209.83 194.75 209.94 194.89 210.16 194.97C211.81 195.5 213.19 196.64 214.32 198.38C215.44 200.12 216.01 202.18 216.01 204.57C216.01 207.56 215.04 210.27 213.11 212.69C211.18 215.11 208.22 216.43 204.23 216.64C200.24 216.85 197.36 216.95 195.59 216.95C193.82 216.95 187.9 216.89 177.83 216.78C176.91 216.78 176.17 216.43 175.6 215.73C175.03 215.03 174.7 214.23 174.6 213.32C174.35 209.99 174.22 205.14 174.22 198.76C174.22 192.38 174.33 186.95 174.55 182.44C174.64 180.59 174.91 179.25 175.36 178.44C175.81 177.63 176.69 177.2 178.02 177.16L178.01 177.15ZM193.54 184.76L193.59 189.41C193.59 190.13 193.95 190.49 194.68 190.49C197.88 190.49 199.48 189.41 199.48 187.25C199.48 184.75 198.06 183.5 195.21 183.5H194.69C193.93 183.5 193.55 183.92 193.55 184.75L193.54 184.76ZM193.59 200.37L193.54 207.75C193.54 208.09 193.63 208.38 193.83 208.63C194.02 208.88 194.27 209 194.59 209C196.52 209 198.11 208.55 199.36 207.64C200.61 206.73 201.24 205.3 201.24 203.35C201.24 201.4 200.59 200.05 199.29 199.29C198.25 198.69 197.11 198.38 195.87 198.38C195.55 198.38 195.24 198.4 194.92 198.44C194.03 198.52 193.59 199.16 193.59 200.37Z" fill="black"/>
<path d="M224.26 177.15C228.18 177 233.09 176.92 238.98 176.92C244.87 176.92 248.94 176.99 251.21 177.12C253.47 177.25 255.48 178.3 257.22 180.27C258.96 182.24 259.83 184.51 259.83 187.08C259.83 190.22 258.69 192.53 256.41 194C256.19 194.15 256.08 194.33 256.08 194.54C256.08 194.75 256.19 194.89 256.41 194.97C258.06 195.5 259.44 196.64 260.57 198.38C261.69 200.12 262.26 202.18 262.26 204.57C262.26 207.56 261.29 210.27 259.36 212.69C257.43 215.11 254.47 216.43 250.48 216.64C246.49 216.85 243.61 216.95 241.84 216.95C240.07 216.95 234.15 216.89 224.08 216.78C223.16 216.78 222.42 216.43 221.85 215.73C221.28 215.03 220.95 214.23 220.85 213.32C220.6 209.99 220.47 205.14 220.47 198.76C220.47 192.38 220.58 186.95 220.8 182.44C220.89 180.59 221.16 179.25 221.61 178.44C222.06 177.63 222.94 177.2 224.27 177.16L224.26 177.15ZM239.79 184.76L239.84 189.41C239.84 190.13 240.2 190.49 240.93 190.49C244.13 190.49 245.73 189.41 245.73 187.25C245.73 184.75 244.31 183.5 241.46 183.5H240.94C240.18 183.5 239.8 183.92 239.8 184.75L239.79 184.76ZM239.84 200.37L239.79 207.75C239.79 208.09 239.88 208.38 240.08 208.63C240.27 208.88 240.52 209 240.84 209C242.77 209 244.36 208.55 245.61 207.64C246.86 206.73 247.49 205.3 247.49 203.35C247.49 201.4 246.84 200.05 245.54 199.29C244.5 198.69 243.36 198.38 242.12 198.38C241.8 198.38 241.49 198.4 241.17 198.44C240.28 198.52 239.84 199.16 239.84 200.37Z" fill="black"/>
<path d="M268.17 215.77C267.55 215.07 267.16 213.92 266.98 212.31C266.81 210.7 266.72 205.88 266.72 197.84C266.72 189.8 266.83 184.55 267.05 182.09C267.3 178.91 268.43 177.29 270.42 177.21C272.7 177.13 282.15 177.1 298.77 177.1C300.64 177.1 301.57 178.52 301.57 181.36C301.57 183.59 300.75 184.71 299.1 184.71H288.73C288.07 184.71 287.43 184.99 287.05 185.52C286.67 186.05 286.47 186.72 286.47 187.55V191.64C286.47 192.78 286.9 193.34 287.75 193.34H296.39C296.9 193.34 297.28 193.4 297.55 193.51C297.82 193.62 298.06 193.96 298.29 194.5C298.51 195.05 298.62 195.95 298.62 197.2C298.62 198.45 298.44 199.28 298.07 199.7C297.71 200.12 297.11 200.32 296.29 200.32H288.55C287.76 200.32 287.21 200.56 286.91 201.03C286.61 201.5 286.46 202.23 286.46 203.22V206C286.46 207.63 287.11 208.44 288.41 208.44H300.24C300.81 208.44 301.32 208.64 301.76 209.04C302.2 209.44 302.42 210.31 302.42 211.65C302.42 212.99 302.15 214.19 301.61 215.25C301.07 216.31 300.44 216.84 299.71 216.84H270.41C269.52 216.84 268.77 216.49 268.16 215.79L268.17 215.77Z" fill="black"/>
<path d="M339.19 177.09H344.27C345.35 177.09 346.1 177.3 346.53 177.71C346.96 178.13 347.19 178.98 347.22 180.26C347.41 186.01 347.51 192.2 347.51 198.82C347.51 205.44 347.4 210.07 347.19 213.14C347.15 213.65 347.05 214.16 346.88 214.65C346.36 216.09 345.54 216.81 344.42 216.81H336.49C335.38 216.81 334.16 216.34 332.83 215.39C325.48 210.21 320.86 207.05 318.96 205.91C318.58 205.72 318.27 205.79 318.03 206.11C317.79 206.43 317.67 207.03 317.67 207.9V214.2C317.67 214.92 317.45 215.49 317 215.9C316.33 216.54 314.62 216.86 311.87 216.86C311.11 216.86 310.37 216.83 309.64 216.78C308.91 216.73 308.32 216.34 307.86 215.62C307.4 214.9 307.16 214.12 307.12 213.29C307.02 208.75 306.98 203.04 306.98 196.18C306.98 189.32 307 184.84 307.03 182.76C307.06 180.68 307.27 179.21 307.65 178.36C308.03 177.51 308.76 177.08 309.83 177.08H315.05C316.13 177.08 317.23 177.44 318.37 178.16C328.18 184.25 333.91 187.79 335.56 188.77C336.1 189.07 336.53 189.11 336.84 188.88C337.16 188.65 337.32 188.24 337.32 187.63V179.68C337.32 178.92 337.49 178.3 337.82 177.81C338.15 177.32 338.6 177.07 339.17 177.07L339.19 177.09Z" fill="black"/>
<path d="M108.38 153.38H38.3799V79.3901H112.44L112.37 84.1501V86.8501L109.66 88.4501L54.6099 116.39L112.34 145.28L112.38 153.35L108.38 153.39V153.38ZM46.3899 145.38H94.6799L48.2599 122.15C47.5399 121.79 46.9099 121.31 46.3899 120.75V145.38ZM46.3899 87.3901V112.02C46.9099 111.45 47.5399 110.98 48.2599 110.62L94.6899 87.3901H46.3999H46.3899Z" fill="black"/>
</svg>
